<svg xmlns="http://www.w3.org/2000/svg" xmlns:xlink="http://www.w3.org/1999/xlink" width="142" height="44" viewBox="0 0 142 44" fill="none" role="img" aria-label="Portfolio">
<title>Portfolio</title>
<defs>
  <linearGradient id="site-bs" gradientUnits="userSpaceOnUse" x1="0" y1="0" x2="142" y2="44">
    <stop offset="0" stop-color="#7C3AED" stop-opacity=".75"><animate attributeName="stop-color" values="#7C3AED;#22D3EE;#10B981;#7C3AED" dur="9s" repeatCount="indefinite"/></stop>
    <stop offset="1" stop-color="#0EA5E9" stop-opacity=".75"><animate attributeName="stop-color" values="#22D3EE;#10B981;#7C3AED;#22D3EE" dur="9s" repeatCount="indefinite"/></stop>
  </linearGradient>
  <linearGradient id="site-bi" gradientUnits="userSpaceOnUse" x1="16" y1="12" x2="40" y2="34">
    <stop offset="0" stop-color="#3B82F6"><animate attributeName="stop-color" values="#3B82F6;#06B6D4;#3B82F6" dur="7s" repeatCount="indefinite"/></stop>
    <stop offset="1" stop-color="#06B6D4"><animate attributeName="stop-color" values="#06B6D4;#7C3AED;#06B6D4" dur="7s" repeatCount="indefinite"/></stop>
  </linearGradient>
  <linearGradient id="site-sw" gradientUnits="userSpaceOnUse" x1="-90" y1="0" x2="0" y2="44">
    <stop offset="0" stop-color="#ffffff" stop-opacity="0"/>
    <stop offset=".5" stop-color="#ffffff" stop-opacity=".16"/>
    <stop offset="1" stop-color="#ffffff" stop-opacity="0"/>
    <animateTransform attributeName="gradientTransform" type="translate" from="0 0" to="322 0" dur="5s" repeatCount="indefinite"/>
  </linearGradient>
  <filter id="site-bg" x="-40%" y="-90%" width="180%" height="280%"><feGaussianBlur stdDeviation="2.4" result="b"/><feMerge><feMergeNode in="b"/><feMergeNode in="SourceGraphic"/></feMerge></filter>
  <clipPath id="site-bc"><rect x="1" y="1" width="140" height="42" rx="21"/></clipPath>
</defs>
<rect x="1" y="1" width="140" height="42" rx="21" fill="#8AA0BE" fill-opacity=".08"/>
<g clip-path="url(#site-bc)"><rect x="0" y="0" width="142" height="44" fill="url(#site-sw)"/></g>
<rect x="1" y="1" width="140" height="42" rx="21" fill="none" stroke="url(#site-bs)" stroke-width="1.2">
  <animate attributeName="stroke-opacity" values=".6;1;.6" dur="4s" repeatCount="indefinite"/>
</rect>
<g transform="translate(13.94,13.94) scale(1.01)" fill="none" stroke="url(#site-bi)" stroke-width="1.4" filter="url(#site-bg)"><circle cx="8" cy="8" r="6.3"/><path d="M1.7 8h12.6"/><path d="M8 1.7c1.75 1.8 2.7 3.95 2.7 6.3S9.75 12.5 8 14.3C6.25 12.5 5.3 10.35 5.3 8s.95-4.5 2.7-6.3z"/></g>
<text x="44" y="26.5" font-family="ui-monospace,'SF Mono',SFMono-Regular,Menlo,Consolas,'Liberation Mono',monospace" font-size="13" fill="#64748B" letter-spacing=".3">Portfolio</text>
</svg>
